<svg width="20" height="20" viewBox="0 0 20 20" fill="none" xmlns="http://www.w3.org/2000/svg">
<path fill-rule="evenodd" clip-rule="evenodd" d="M6.66675 5C6.66675 4.33696 6.93014 3.70107 7.39898 3.23223C7.86782 2.76339 8.50371 2.5 9.16675 2.5H10.8334C11.4965 2.5 12.1323 2.76339 12.6012 3.23223C13.07 3.70107 13.3334 4.33696 13.3334 5V17.5H6.66675V5ZM5.00008 5.83333H4.16675C3.50371 5.83333 2.86782 6.09673 2.39898 6.56557C1.93014 7.03441 1.66675 7.67029 1.66675 8.33333V15C1.66675 15.663 1.93014 16.2989 2.39898 16.7678C2.86782 17.2366 3.50371 17.5 4.16675 17.5H5.00008V5.83333ZM15.0001 17.5H15.8334C16.4965 17.5 17.1323 17.2366 17.6012 16.7678C18.07 16.2989 18.3334 15.663 18.3334 15V8.33333C18.3334 7.67029 18.07 7.03441 17.6012 6.56557C17.1323 6.09673 16.4965 5.83333 15.8334 5.83333H15.0001V17.5ZM8.33341 5.83333H11.6667V5C11.6667 4.77899 11.5789 4.56702 11.4227 4.41074C11.2664 4.25446 11.0544 4.16667 10.8334 4.16667H9.16675C8.94573 4.16667 8.73377 4.25446 8.57749 4.41074C8.42121 4.56702 8.33341 4.77899 8.33341 5V5.83333Z" fill="black"/>
</svg>
