<svg width="14" height="14" viewBox="0 0 14 14" fill="none" xmlns="http://www.w3.org/2000/svg">
<path d="M3.5 11.0833V11.3896C3.5 11.6326 3.41736 11.8368 3.25208 12.0021C3.08681 12.1674 2.87778 12.25 2.625 12.25C2.38195 12.25 2.17525 12.1648 2.00492 11.9945C1.83458 11.8242 1.74961 11.6177 1.75 11.375V7L2.975 3.5C3.03333 3.325 3.13775 3.18403 3.28825 3.07708C3.43875 2.97014 3.60656 2.91667 3.79167 2.91667H10.2083C10.3931 2.91667 10.5609 2.97014 10.7118 3.07708C10.8626 3.18403 10.9671 3.325 11.025 3.5L12.25 7V11.3896C12.25 11.6326 12.1674 11.8368 12.0021 12.0021C11.8368 12.1674 11.6278 12.25 11.375 12.25C11.1319 12.25 10.9254 12.1648 10.7555 11.9945C10.5856 11.8242 10.5004 11.6177 10.5 11.375V11.0833H3.5ZM3.38333 5.83333H10.6167L10.0042 4.08333H3.99583L3.38333 5.83333ZM4.375 9.33333C4.61806 9.33333 4.82475 9.24817 4.99508 9.07783C5.16542 8.9075 5.25039 8.701 5.25 8.45833C5.25 8.21528 5.16483 8.00858 4.9945 7.83825C4.82417 7.66792 4.61767 7.58295 4.375 7.58333C4.13195 7.58333 3.92525 7.6685 3.75492 7.83883C3.58458 8.00917 3.49961 8.21567 3.5 8.45833C3.5 8.70139 3.58517 8.90808 3.7555 9.07842C3.92583 9.24875 4.13233 9.33372 4.375 9.33333ZM9.625 9.33333C9.86806 9.33333 10.0748 9.24817 10.2451 9.07783C10.4154 8.9075 10.5004 8.701 10.5 8.45833C10.5 8.21528 10.4148 8.00858 10.2445 7.83825C10.0742 7.66792 9.86767 7.58295 9.625 7.58333C9.38195 7.58333 9.17525 7.6685 9.00492 7.83883C8.83458 8.00917 8.74961 8.21567 8.75 8.45833C8.75 8.70139 8.83517 8.90808 9.0055 9.07842C9.17583 9.24875 9.38233 9.33372 9.625 9.33333Z" fill="black"/>
</svg>
