<svg width="20" height="20" viewBox="0 0 20 20" fill="none" xmlns="http://www.w3.org/2000/svg">
<path d="M9.99992 0.833344C9.55789 0.833344 9.13397 1.00894 8.82141 1.3215C8.50885 1.63406 8.33325 2.05798 8.33325 2.50001C8.33325 3.42501 9.07492 4.16668 9.99992 4.16668C10.9249 4.16668 11.6666 3.42501 11.6666 2.50001C11.6666 2.05798 11.491 1.63406 11.1784 1.3215C10.8659 1.00894 10.4419 0.833344 9.99992 0.833344ZM8.33325 5.00001C8.10825 5.00001 7.91659 5.09168 7.75825 5.23334H7.74992L3.33325 9.65834L4.51659 10.8333L7.49992 7.84168V18.3333H9.16658V12.5H10.8333V18.3333H12.4999V7.84168L15.4833 10.8333L16.6666 9.65834L12.2499 5.23334C12.0833 5.09168 11.8916 5.00001 11.6666 5.00001" fill="black"/>
</svg>
