<svg width="41" height="40" viewBox="0 0 41 40" fill="none" xmlns="http://www.w3.org/2000/svg">
<g clip-path="url(#clip0_499_152)">
<path fill-rule="evenodd" clip-rule="evenodd" d="M5.2127 1.27709C5.65014 0.840307 6.1754 0.501481 6.75369 0.28306C7.33198 0.0646394 7.95009 -0.0283881 8.56705 0.0101424C9.18401 0.048673 9.78574 0.217882 10.3324 0.506555C10.879 0.795229 11.358 1.19678 11.7377 1.68459L16.2252 7.44958C17.0477 8.50708 17.3377 9.88459 17.0127 11.1846L15.6452 16.6596C15.5745 16.9432 15.5783 17.2402 15.6563 17.5219C15.7343 17.8035 15.8837 18.0602 16.0902 18.2671L22.2327 24.4096C22.4398 24.6165 22.6969 24.7662 22.9791 24.8442C23.2612 24.9222 23.5588 24.9257 23.8427 24.8546L29.3152 23.4871C29.9567 23.3267 30.6263 23.3142 31.2734 23.4507C31.9205 23.5871 32.528 23.8688 33.0502 24.2746L38.8152 28.7596C40.8877 30.3721 41.0777 33.4346 39.2227 35.2871L36.6377 37.8721C34.7877 39.7221 32.0227 40.5346 29.4452 39.6271C22.8482 37.3059 16.8584 33.5292 11.9202 28.5771C6.96842 23.6396 3.19172 17.6507 0.870201 11.0546C-0.0347992 8.47958 0.777701 5.71209 2.6277 3.86209L5.2127 1.27709Z" fill="black"/>
</g>
<defs>
<clipPath id="clip0_499_152">
<rect width="40" height="40" fill="white" transform="translate(0.5)"/>
</clipPath>
</defs>
</svg>
